<svg xmlns="http://www.w3.org/2000/svg" viewBox="0 0 1200 675"><defs><marker id="a" viewBox="0 0 10 10" refX="9" refY="5" markerWidth="8" markerHeight="8" orient="auto"><path d="M0 0 10 5 0 10z" fill="#111827"/></marker></defs><style>.t{font:700 44px Arial;fill:#06164f}.s{font:400 22px Arial;fill:#475569}.h{font:700 23px Arial;fill:#0b4bd8}.b{font:500 17px Arial;fill:#334155}.c{fill:#fff;stroke:#bfdbfe;stroke-width:3}.a{stroke:#111827;stroke-width:5;marker-end:url(#a)}</style><rect width="1200" height="675" fill="#f8fbff"/><text x="70" y="80" class="t">Log Lifecycle Workflow</text><text x="70" y="118" class="s">From an application event to searchable operational evidence</text><g transform="translate(80 285)"><rect width="175" height="120" rx="18" class="c"/><text x="88" y="55" text-anchor="middle" class="h">Event</text><text x="88" y="85" text-anchor="middle" class="b">operation occurs</text></g><line x1="255" y1="345" x2="355" y2="345" class="a"/><g transform="translate(355 285)"><rect width="175" height="120" rx="18" class="c"/><text x="88" y="55" text-anchor="middle" class="h">Enrich</text><text x="88" y="85" text-anchor="middle" class="b">add context</text></g><line x1="530" y1="345" x2="630" y2="345" class="a"/><g transform="translate(630 285)"><rect width="175" height="120" rx="18" class="c"/><text x="88" y="55" text-anchor="middle" class="h">Store</text><text x="88" y="85" text-anchor="middle" class="b">index records</text></g><line x1="805" y1="345" x2="905" y2="345" class="a"/><g transform="translate(905 285)"><rect width="215" height="120" rx="18" class="c"/><text x="108" y="55" text-anchor="middle" class="h">Investigate</text><text x="108" y="85" text-anchor="middle" class="b">query and correlate</text></g></svg>