<svg xmlns="http://www.w3.org/2000/svg" viewBox="0 0 1200 675" role="img" aria-labelledby="title desc">
  <title id="title">Grafana Concept Map</title>
  <desc id="desc">Exploring telemetry through data sources, panels, dashboards and alerts</desc>
  <defs>
    <filter id="shadow" x="-20%" y="-20%" width="140%" height="140%"><feDropShadow dx="0" dy="8" stdDeviation="8" flood-color="#0f172a" flood-opacity="0.12"/></filter>
    <style>.t{font:700 44px Arial,sans-serif;fill:#06164f}.s{font:400 22px Arial,sans-serif;fill:#475569}.h{font:700 24px Arial,sans-serif;fill:#ea580c}.b{font:500 18px Arial,sans-serif;fill:#334155}.c{fill:#fff;stroke:#fed7aa;stroke-width:3;filter:url(#shadow)}.l{stroke:#ea580c;stroke-width:4;stroke-linecap:round}</style>
  </defs>
  <rect width="1200" height="675" fill="#f8fbff"/>
  <text x="70" y="74" class="t">Grafana Concept Map</text>
  <text x="70" y="112" class="s">Exploring telemetry through data sources, panels, dashboards and alerts</text>
  <circle cx="600" cy="385" r="92" fill="#ea580c"/>
  <text x="600" y="378" text-anchor="middle" font-family="Arial,sans-serif" font-size="28" font-weight="700" fill="#fff">Grafana</text>
  <text x="600" y="412" text-anchor="middle" font-family="Arial,sans-serif" font-size="18" font-weight="500" fill="#fff" opacity="0.86">visual insight</text>
  <line x1="508" y1="385" x2="330" y2="385" class="l"/>
  <line x1="692" y1="385" x2="870" y2="385" class="l"/>
  <line x1="600" y1="293" x2="600" y2="210" class="l"/>
  <line x1="600" y1="477" x2="600" y2="550" class="l"/>
  <rect x="120" y="330" width="210" height="110" rx="18" class="c"/>
  <text x="225" y="377" text-anchor="middle" class="h">Data Sources</text>
  <text x="225" y="407" text-anchor="middle" class="b">ClickHouse etc.</text>
  <rect x="495" y="145" width="210" height="110" rx="18" class="c"/>
  <text x="600" y="192" text-anchor="middle" class="h">Explore</text>
  <text x="600" y="222" text-anchor="middle" class="b">ad hoc queries</text>
  <rect x="870" y="330" width="210" height="110" rx="18" class="c"/>
  <text x="975" y="377" text-anchor="middle" class="h">Panels</text>
  <text x="975" y="407" text-anchor="middle" class="b">charts and tables</text>
  <rect x="495" y="550" width="210" height="95" rx="18" class="c"/>
  <text x="600" y="590" text-anchor="middle" class="h">Alerting</text>
  <text x="600" y="620" text-anchor="middle" class="b">rules and routing</text>
</svg>
