<svg xmlns="http://www.w3.org/2000/svg" viewBox="0 0 1200 675"><style>.t{font:700 44px Arial;fill:#06164f}.s{font:400 22px Arial;fill:#475569}.h{font:700 24px Arial;fill:#0b4bd8}.b{font:500 18px Arial;fill:#334155}.c{fill:#fff;stroke:#bfdbfe;stroke-width:3}.l{stroke:#2563eb;stroke-width:4}</style><rect width="1200" height="675" fill="#f8fbff"/><text x="70" y="80" class="t">Instrumentation Concept Map</text><text x="70" y="118" class="s">Deciding where and how applications should emit useful telemetry</text><circle cx="600" cy="350" r="95" fill="#0b63e5"/><text x="600" y="346" text-anchor="middle" font="700 28px Arial" fill="#fff">Instrument</text><text x="600" y="380" text-anchor="middle" font="500 18px Arial" fill="#dbeafe">emit signals</text><line x1="505" y1="350" x2="330" y2="350" class="l"/><line x1="695" y1="350" x2="870" y2="350" class="l"/><line x1="600" y1="255" x2="600" y2="180" class="l"/><line x1="600" y1="445" x2="600" y2="520" class="l"/><rect x="120" y="295" width="210" height="110" rx="18" class="c"/><text x="225" y="342" text-anchor="middle" class="h">Auto</text><text x="225" y="372" text-anchor="middle" class="b">framework hooks</text><rect x="870" y="295" width="210" height="110" rx="18" class="c"/><text x="975" y="342" text-anchor="middle" class="h">Manual</text><text x="975" y="372" text-anchor="middle" class="b">business spans</text><rect x="495" y="70" width="210" height="110" rx="18" class="c"/><text x="600" y="117" text-anchor="middle" class="h">Attributes</text><text x="600" y="147" text-anchor="middle" class="b">semantic context</text><rect x="495" y="520" width="210" height="110" rx="18" class="c"/><text x="600" y="567" text-anchor="middle" class="h">Sampling</text><text x="600" y="597" text-anchor="middle" class="b">control volume</text></svg>